<svg width="78" height="78" viewBox="0 0 78 78" fill="none" xmlns="http://www.w3.org/2000/svg">
<path d="M39 78C28.6566 78 18.7368 73.8911 11.4228 66.5772C4.10892 59.2632 0 49.3434 0 39C0 28.6566 4.10892 18.7368 11.4228 11.4228C18.7368 4.10892 28.6566 0 39 0C49.3434 0 59.2632 4.10892 66.5772 11.4228C73.8911 18.7368 78 28.6566 78 39C78 49.3434 73.8911 59.2632 66.5772 66.5772C59.2632 73.8911 49.3434 78 39 78ZM53.7761 19.5C48.1132 19.5003 42.6824 21.7502 38.6782 25.7546L37.557 26.871C36.7965 27.6364 36.0555 28.431 35.3535 29.2597H27.5438C26.8144 29.2598 26.0973 29.4467 25.4606 29.8026C24.824 30.1585 24.2891 30.6714 23.907 31.2926L19.734 38.0591C19.5888 38.2977 19.4998 38.5663 19.4739 38.8444C19.448 39.1225 19.4859 39.4029 19.5846 39.6642C19.6832 39.9255 19.8402 40.1608 20.0435 40.3524C20.2468 40.5439 20.491 40.6866 20.7577 40.7696L28.3237 43.095L34.905 49.6762L37.2352 57.2471C37.316 57.5149 37.4572 57.7605 37.648 57.9649C37.8388 58.1693 38.0741 58.3271 38.3357 58.4261C38.5972 58.525 38.878 58.5625 39.1564 58.5356C39.4347 58.5087 39.7031 58.4181 39.9409 58.2709L46.7122 54.1027C47.3325 53.72 47.8446 53.1849 48.1995 52.5483C48.5545 51.9117 48.7407 51.1949 48.7402 50.466V42.6416C49.569 41.9396 50.3636 41.2035 51.129 40.4381L52.2503 39.3169C56.2522 35.3135 58.5002 29.8845 58.5 24.2239V23.7705C58.5 22.6379 58.0501 21.5517 57.2492 20.7508C56.4483 19.9499 55.3621 19.5 54.2295 19.5H53.7761ZM28.8795 54.327C29.2573 53.4751 29.3164 52.517 29.0551 51.6224C28.7939 50.7279 28.2243 49.9548 27.4474 49.4401C26.6704 48.9255 25.7364 48.7026 24.8108 48.811C23.8852 48.9193 23.0279 49.352 22.3909 50.0321C20.4653 51.9529 19.6414 56.1649 19.3684 57.9296C19.3511 58.0247 19.3577 58.1225 19.3875 58.2143C19.4173 58.3062 19.4693 58.3893 19.539 58.4561C19.6059 58.5258 19.6889 58.5779 19.7808 58.6076C19.8727 58.6374 19.9705 58.644 20.0655 58.6268C21.8303 58.3537 26.0422 57.5299 27.963 55.6091C28.3523 55.2483 28.6641 54.8121 28.8795 54.327Z" fill="white"/>
</svg>
